<svg width="499.99999999999994" height="499.99999999999994" xmlns="http://www.w3.org/2000/svg">
 <!-- Created with Method Draw - http://github.com/duopixel/Method-Draw/ -->

 <g>
  <title>background</title>
  <rect fill="none" id="canvas_background" height="502" width="502" y="-1" x="-1"/>
  <g display="none" overflow="visible" id="canvasGrid">
   <rect fill="url(#gridpattern)" stroke-width="0" y="0" x="0" height="100%" width="100%"/>
  </g>
 </g>
 <g>
  <title>Layer 1</title>
  <g transform="matrix(5.5306278203818495,0,0,4.911755927750803,-8.06396082659112,-134.26570559615573) " id="svg_5">
   <g id="svg_6">
    <g id="svg_7">
     <path id="svg_8" fill="#42dca3" d="m38.868394,111.834551c-2.176,0 -4.234,-1.018 -5.557,-2.764l-17.868,-23.597c-2.324,-3.069 -1.719,-7.439 1.35,-9.764c3.074,-2.326 7.441,-1.717 9.766,1.35l11.752,15.518l29.557,-47.458c2.035,-3.265 6.332,-4.264 9.604,-2.232c3.268,2.034 4.266,6.334 2.23,9.602l-34.916,56.06c-1.213,1.949 -3.307,3.175 -5.6,3.279c-0.107,0.004 -0.212,0.006 -0.318,0.006z"/>
    </g>
   </g>
  </g>
  <g transform="matrix(3.628117935457467,0,0,3.628117935457467,0,0) " id="svg_9"/>
  <g transform="matrix(3.628117935457467,0,0,3.628117935457467,0,0) " id="svg_10"/>
  <g transform="matrix(3.628117935457467,0,0,3.628117935457467,0,0) " id="svg_11"/>
  <g transform="matrix(3.628117935457467,0,0,3.628117935457467,0,0) " id="svg_12"/>
  <g transform="matrix(3.628117935457467,0,0,3.628117935457467,0,0) " id="svg_13"/>
  <g transform="matrix(3.628117935457467,0,0,3.628117935457467,0,0) " id="svg_14"/>
  <g transform="matrix(3.628117935457467,0,0,3.628117935457467,0,0) " id="svg_15"/>
  <g transform="matrix(3.628117935457467,0,0,3.628117935457467,0,0) " id="svg_16"/>
  <g transform="matrix(3.628117935457467,0,0,3.628117935457467,0,0) " id="svg_17"/>
  <g transform="matrix(3.628117935457467,0,0,3.628117935457467,0,0) " id="svg_18"/>
  <g transform="matrix(3.628117935457467,0,0,3.628117935457467,0,0) " id="svg_19"/>
  <g transform="matrix(3.628117935457467,0,0,3.628117935457467,0,0) " id="svg_20"/>
  <g transform="matrix(3.628117935457467,0,0,3.628117935457467,0,0) " id="svg_21"/>
  <g transform="matrix(3.628117935457467,0,0,3.628117935457467,0,0) " id="svg_22"/>
  <g transform="matrix(3.628117935457467,0,0,3.628117935457467,0,0) " id="svg_23"/>
  <g id="svg_24"/>
 </g>
</svg>