<?xml version="1.0" ?><svg enable-background="new 0 0 80 80" id="Layer_1" version="1.1" viewBox="0 0 80 80" xml:space="preserve" xmlns="http://www.w3.org/2000/svg" xmlns:xlink="http://www.w3.org/1999/xlink"><g><g><path d="    M55,59H25c-2.209,0-4-1.791-4-4V25c0-2.209,1.791-4,4-4h30c2.209,0,4,1.791,4,4v30C59,57.209,57.209,59,55,59z" fill="none" stroke="#000000" stroke-linecap="round" stroke-linejoin="round" stroke-miterlimit="10" stroke-width="4"/><circle cx="40" cy="40" fill="none" r="13" stroke="#000000" stroke-linecap="round" stroke-linejoin="round" stroke-miterlimit="10" stroke-width="4"/><g><path d="     M42.892,37.108l0.079-0.013c3.292-0.549,5.705-3.397,5.705-6.734v0" fill="none" stroke="#000000" stroke-linecap="round" stroke-linejoin="round" stroke-miterlimit="10" stroke-width="4"/><path d="     M40,35.911l0.046-0.065c1.94-2.716,1.632-6.436-0.728-8.796l0,0" fill="none" stroke="#000000" stroke-linecap="round" stroke-linejoin="round" stroke-miterlimit="10" stroke-width="4"/><path d="     M37.108,37.108l-0.013-0.079c-0.549-3.292-3.397-5.705-6.734-5.705h0" fill="none" stroke="#000000" stroke-linecap="round" stroke-linejoin="round" stroke-miterlimit="10" stroke-width="4"/><path d="     M35.911,40l-0.065-0.046c-2.716-1.94-6.436-1.632-8.796,0.728l0,0" fill="none" stroke="#000000" stroke-linecap="round" stroke-linejoin="round" stroke-miterlimit="10" stroke-width="4"/><path d="     M37.108,42.892l-0.079,0.013c-3.292,0.549-5.705,3.397-5.705,6.734v0" fill="none" stroke="#000000" stroke-linecap="round" stroke-linejoin="round" stroke-miterlimit="10" stroke-width="4"/><path d="     M40,44.089l-0.046,0.065c-1.94,2.716-1.632,6.436,0.728,8.796l0,0" fill="none" stroke="#000000" stroke-linecap="round" stroke-linejoin="round" stroke-miterlimit="10" stroke-width="4"/><path d="     M42.892,42.892l0.013,0.079c0.549,3.292,3.397,5.705,6.734,5.705h0" fill="none" stroke="#000000" stroke-linecap="round" stroke-linejoin="round" stroke-miterlimit="10" stroke-width="4"/><path d="     M44.089,40l0.065,0.046c2.716,1.94,6.436,1.632,8.796-0.728l0,0" fill="none" stroke="#000000" stroke-linecap="round" stroke-linejoin="round" stroke-miterlimit="10" stroke-width="4"/><ellipse cx="40" cy="40" fill="none" rx="4.089" ry="4.089" stroke="#000000" stroke-linecap="round" stroke-linejoin="round" stroke-miterlimit="10" stroke-width="4" transform="matrix(0.7071 -0.7071 0.7071 0.7071 -16.5685 40)"/></g></g><g><line fill="none" stroke="#000000" stroke-linecap="round" stroke-linejoin="round" stroke-miterlimit="10" stroke-width="4" x1="74" x2="71" y1="42" y2="42"/><line fill="none" stroke="#000000" stroke-linecap="round" stroke-linejoin="round" stroke-miterlimit="10" stroke-width="4" x1="65" x2="58" y1="36" y2="36"/><circle cx="71" cy="36" r="2"/><circle cx="65" cy="42" r="2"/><circle cx="74" cy="48" r="2"/><circle cx="75" cy="30" r="2"/><line fill="none" stroke="#000000" stroke-linecap="round" stroke-linejoin="round" stroke-miterlimit="10" stroke-width="4" x1="55" x2="69" y1="30" y2="30"/><line fill="none" stroke="#000000" stroke-linecap="round" stroke-linejoin="round" stroke-miterlimit="10" stroke-width="4" x1="68" x2="57" y1="48" y2="48"/></g><g><line fill="none" stroke="#000000" stroke-linecap="round" stroke-linejoin="round" stroke-miterlimit="10" stroke-width="4" x1="15" x2="5" y1="37" y2="37"/><line fill="none" stroke="#000000" stroke-linecap="round" stroke-linejoin="round" stroke-miterlimit="10" stroke-width="4" x1="15" x2="10" y1="49" y2="49"/><line fill="none" stroke="#000000" stroke-linecap="round" stroke-linejoin="round" stroke-miterlimit="10" stroke-width="4" x1="19" x2="8" y1="31" y2="31"/><line fill="none" stroke="#000000" stroke-linecap="round" stroke-linejoin="round" stroke-miterlimit="10" stroke-width="4" x1="19" x2="15" y1="43" y2="43"/><line fill="none" stroke="#000000" stroke-linecap="round" stroke-linejoin="round" stroke-miterlimit="10" stroke-width="4" x1="9" x2="6" y1="43" y2="43"/></g></g></svg>