<?xml version="1.0" ?><svg height="60px" version="1.1" viewBox="0 0 60 60" width="60px" xmlns="http://www.w3.org/2000/svg" xmlns:xlink="http://www.w3.org/1999/xlink"><title/><desc/><defs/><g fill="none" fill-rule="evenodd" id="People" stroke="none" stroke-width="1"><g fill="#000000" id="Icon-8"><path d="M38.999975,53 L38.999975,55 C38.999975,57.757 36.756975,60 33.999975,60 C31.242975,60 28.999975,57.757 28.999975,55 L28.999975,31 C28.999975,30.448 29.447975,30 29.999975,30 C30.551975,30 30.999975,30.448 30.999975,31 L30.999975,55 C30.999975,56.654 32.345975,58 33.999975,58 C35.653975,58 36.999975,56.654 36.999975,55 L36.999975,53 C36.999975,52.448 37.446975,52 37.999975,52 C38.552975,52 38.999975,52.448 38.999975,53 M53.999975,26 C50.927975,26 49.016975,27.745 47.999975,29.088 C46.982975,27.745 45.071975,26 41.999975,26 C38.927975,26 37.016975,27.745 35.999975,29.088 C34.982975,27.745 33.071975,26 29.999975,26 C26.927975,26 25.016975,27.745 23.999975,29.088 C22.982975,27.745 21.071975,26 17.999975,26 C14.927975,26 13.016975,27.745 11.999975,29.088 C10.982975,27.745 9.07197505,26 5.99997505,26 C4.67197505,26 3.60897505,26.321 2.77197505,26.771 C3.49197505,24.232 4.79297505,20.582 7.01197505,16.967 C11.339975,9.915 17.318975,5.717 24.825975,4.43 C14.363975,11.088 11.173975,24.143 11.025975,24.771 C10.899975,25.308 11.232975,25.846 11.770975,25.973 C11.847975,25.991 11.924975,26 12.000975,26 C12.453975,26 12.863975,25.689 12.972975,25.229 C13.008975,25.077 16.468975,11 27.580975,5.16 C23.073975,13.945 23.093975,24.516 23.097975,25.007 C23.101975,25.557 23.548975,26 24.097975,26 L24.104975,26 C24.656975,25.996 25.101975,25.545 25.097975,24.993 C25.096975,24.872 25.074975,13.458 29.999975,4.905 C34.928975,13.451 34.999975,24.879 34.999975,25 C34.999975,25.552 35.447975,26 35.999975,26 C36.552975,26 36.999975,25.552 36.999975,25 C36.999975,24.509 36.940975,13.944 32.422975,5.162 C43.531975,11.002 46.989975,25.077 47.025975,25.229 C47.135975,25.69 47.545975,26 47.998975,26 C48.074975,26 48.151975,25.991 48.228975,25.973 C48.766975,25.846 49.099975,25.308 48.973975,24.771 C48.824975,24.143 45.635975,11.088 35.173975,4.43 C42.680975,5.717 48.659975,9.915 52.987975,16.967 C55.208975,20.585 56.510975,24.238 57.228975,26.778 C56.391975,26.324 55.327975,26 53.999975,26 M59.952975,29.639 C59.495975,27.08 54.493975,2.716 30.999975,2.032 L30.999975,1 C30.999975,0.448 30.551975,0 29.999975,0 C29.447975,0 28.999975,0.448 28.999975,1 L28.999975,2.034 C4.33197505,2.752 0.0519750468,29.579 0.0109750468,29.854 C-0.0630249532,30.35 0.243975047,30.819 0.726975047,30.958 C1.20697505,31.096 1.71997505,30.852 1.91997505,30.392 C1.96197505,30.294 2.99597505,28 5.99997505,28 C9.55097505,28 11.020975,31.259 11.080975,31.394 C11.237975,31.76 11.597975,31.997 11.996975,31.998 L12.000975,31.998 C12.396975,31.998 12.757975,31.761 12.916975,31.398 C12.978975,31.259 14.448975,28 17.999975,28 C21.550975,28 23.020975,31.259 23.080975,31.394 C23.237975,31.76 23.597975,31.997 23.996975,31.998 C24.411975,32.004 24.756975,31.763 24.916975,31.398 C24.978975,31.259 26.448975,28 29.999975,28 C33.551975,28 35.020975,31.259 35.080975,31.394 C35.237975,31.76 35.598975,31.997 35.996975,31.998 L36.000975,31.998 C36.396975,31.998 36.757975,31.761 36.916975,31.398 C36.978975,31.259 38.447975,28 41.999975,28 C45.542975,28 47.014975,31.243 47.081975,31.396 C47.238975,31.761 47.599975,31.997 47.996975,31.998 L48.000975,31.998 C48.396975,31.998 48.757975,31.761 48.916975,31.398 C48.978975,31.259 50.447975,28 53.999975,28 C56.986975,28 58.038975,30.299 58.078975,30.39 C58.238975,30.768 58.606975,31 58.999975,31 L59.019975,31 C59.571975,31 60.019975,30.552 60.019975,30 C60.019975,29.873 59.995975,29.751 59.952975,29.639" id="umbrella"/></g></g></svg>