<svg width="500" height="500" xmlns="http://www.w3.org/2000/svg">
 <!-- Created with Method Draw - http://github.com/duopixel/Method-Draw/ -->

 <g>
  <title>background</title>
  <rect fill="none" id="canvas_background" height="502" width="502" y="-1" x="-1"/>
  <g display="none" overflow="visible" id="canvasGrid">
   <rect fill="url(#gridpattern)" stroke-width="0" y="0" x="0" height="100%" width="100%"/>
  </g>
 </g>
 <g>
  <title>Layer 1</title>
  <g transform="matrix(14.537553692086368,0,0,14.537553692086368,5.871114744983402,108.2553762060488) " id="svg_5">
   <path id="svg_6" d="m16.792982,-6.249761c-6.627,0 -12,5.373 -12,12s10,20 12,20s12,-13.373 12,-20s-5.373,-12 -12,-12zm0,20c-4.412,0 -8,-3.59 -8,-8s3.588,-8 8,-8s8,3.59 8,8s-3.588,8 -8,8z"/>
  </g>
  <g id="svg_7"/>
  <path stroke="null" id="svg_11" d="m270.228598,244.72129l0,33.241648q0,2.21611 -1.662082,3.878192t-3.878192,1.662082l-33.241648,0q-2.21611,0 -3.878192,-1.662082t-1.662082,-3.878192l0,-33.241648q0,-2.21611 1.662082,-3.878192t3.878192,-1.662082l33.241648,0q2.21611,0 3.878192,1.662082t1.662082,3.878192zm43.768169,-83.104119q0,7.479371 -2.146856,13.989193t-4.84774,10.595775t-7.617878,8.241158t-7.964145,6.025049t-8.448919,4.916994q-5.678781,3.185658 -9.48772,9.002946t-3.808939,9.27996q0,2.354617 -1.662082,4.501473t-3.878192,2.146856l-33.241648,0q-2.077603,0 -3.531925,-2.562377t-1.454322,-5.194007l0,-6.232809q0,-11.49607 9.002946,-21.676324t19.806482,-15.027995q8.171905,-3.739685 11.634577,-7.756384t3.462672,-10.526522q0,-5.817288 -6.440569,-10.249508t-14.889488,-4.43222q-9.002946,0 -14.958741,4.016699q-4.84774,3.462672 -14.820235,15.928289q-1.800589,2.21611 -4.293713,2.21611q-1.662082,0 -3.462672,-1.108055l-22.715126,-17.313358q-1.800589,-1.385069 -2.146856,-3.462672t0.761788,-3.878192q22.161098,-36.842826 64.267185,-36.842826q11.080549,0 22.299605,4.293713t20.222002,11.49607t14.681728,17.659625t5.678781,21.953338z"/>
  <g id="svg_12"/>
 </g>
</svg>