<?xml version="1.0" ?><!DOCTYPE svg  PUBLIC '-//W3C//DTD SVG 1.1//EN'  'http://www.w3.org/Graphics/SVG/1.1/DTD/svg11.dtd'><svg enable-background="new 0 0 24 24" height="24px" id="Layer_1" version="1.1" viewBox="0 0 24 24" width="24px" xml:space="preserve" xmlns="http://www.w3.org/2000/svg" xmlns:xlink="http://www.w3.org/1999/xlink"><g><path d="M12,20c1.7,0,3-1.3,3-3H9C9,18.7,10.3,20,12,20z"/><path d="M16,12.6V3c0-2.2-1.8-4-4-4S8,0.8,8,3v9.6c-1.2,1.1-2,2.7-2,4.4c0,3.3,2.7,6,6,6s6-2.7,6-6C18,15.2,17.2,13.7,16,12.6z    M12,21c-2.2,0-4-1.8-4-4c0-1.5,0.8-2.8,2-3.4V3c0-1.1,0.9-2,2-2s2,0.9,2,2v10.6c1.2,0.7,2,2,2,3.4C16,19.2,14.2,21,12,21z"/></g></svg>