<svg width="500" height="500" xmlns="http://www.w3.org/2000/svg">
 <!-- Created with Method Draw - http://github.com/duopixel/Method-Draw/ -->

 <g>
  <title>background</title>
  <rect x="-1" y="-1" width="502" height="502" id="canvas_background" fill="none"/>
  <g id="canvasGrid" display="none">
   <rect id="svg_1" width="100%" height="100%" x="0" y="0" stroke-width="0" fill="url(#gridpattern)"/>
  </g>
 </g>
 <g>
  <title>Layer 1</title>
  <path d="m249.999992,17.39914c-96.340368,0 -174.450644,78.110276 -174.450644,174.450644s145.375537,290.751074 174.450644,290.751074s174.450644,-194.410706 174.450644,-290.751074s-78.110276,-174.450644 -174.450644,-174.450644zm0,290.751074c-64.139687,0 -116.30043,-52.189818 -116.30043,-116.30043s52.160743,-116.30043 116.30043,-116.30043s116.30043,52.189818 116.30043,116.30043s-52.160743,116.30043 -116.30043,116.30043z" id="svg_6"/>
  <g id="svg_17"/>
  <g transform="matrix(6.954850784276032,0,0,6.954850784276032,311.2264177176209,455.89458345681146) " id="svg_22">
   <path id="svg_23" d="m-8.803412,-29.393986c1.7,0 3,-1.3 3,-3l-6,0c0,1.7 1.3,3 3,3z"/>
   <path id="svg_24" d="m-4.803412,-36.793986l0,-9.6c0,-2.2 -1.8,-4 -4,-4s-4,1.8 -4,4l0,9.6c-1.2,1.1 -2,2.7 -2,4.4c0,3.3 2.7,6 6,6s6,-2.7 6,-6c0,-1.8 -0.8,-3.3 -2,-4.4zm-4,8.4c-2.2,0 -4,-1.8 -4,-4c0,-1.5 0.8,-2.8 2,-3.4l0,-10.6c0,-1.1 0.9,-2 2,-2s2,0.9 2,2l0,10.6c1.2,0.7 2,2 2,3.4c0,2.2 -1.8,4 -4,4z"/>
  </g>
  <g id="svg_25"/>
 </g>
</svg>