<?xml version="1.0" ?><!DOCTYPE svg  PUBLIC '-//W3C//DTD SVG 1.1//EN'  'http://www.w3.org/Graphics/SVG/1.1/DTD/svg11.dtd'><svg enable-background="new 0 0 512 512" height="512px" id="Layer_1" version="1.1" viewBox="0 0 512 512" width="512px" xml:space="preserve" xmlns="http://www.w3.org/2000/svg" xmlns:xlink="http://www.w3.org/1999/xlink"><g><line fill="none" stroke="#000000" stroke-miterlimit="10" stroke-width="20" x1="51" x2="388" y1="256" y2="256"/><line fill="none" stroke="#000000" stroke-miterlimit="10" stroke-width="20" x1="85" x2="241" y1="222" y2="222"/><path d="M198.177,201.276" fill="none" stroke="#000000" stroke-miterlimit="10" stroke-width="20"/><path d="M241.316,222.316" fill="none" stroke="#000000" stroke-miterlimit="10" stroke-width="20"/><line fill="none" stroke="#000000" stroke-miterlimit="10" stroke-width="20" x1="119" x2="308" y1="290" y2="290"/><path d="M264.41,322.358   c-1.327,4.313-2.042,8.894-2.042,13.642c0,25.579,20.736,46.316,46.316,46.316S355,361.579,355,336s-21.078-46-46.658-46" fill="none" stroke="#000000" stroke-miterlimit="10" stroke-width="20"/><path d="M265.546,310.724" fill="none" stroke="#000000" stroke-miterlimit="10" stroke-width="20"/><path d="M327.089,207.654" fill="none" stroke="#000000" stroke-miterlimit="10" stroke-width="20"/><path d="M326.089,207.654   c-1.142-4.751-1.746-9.711-1.746-14.812c0-34.881,28.277-63.158,63.158-63.158s63.158,28.277,63.158,63.158S422.381,256,387.5,256" fill="none" stroke="#000000" stroke-miterlimit="10" stroke-width="20"/><path d="M199.909,187.488" fill="none" stroke="#000000" stroke-miterlimit="10" stroke-width="20"/><path d="M199.909,187.488   c-0.373-2.23-0.567-4.521-0.567-6.857c0-22.802,18.484-41.286,41.286-41.286s41.286,18.484,41.286,41.286   s-18.484,41.286-41.286,41.286" fill="none" stroke="#000000" stroke-miterlimit="10" stroke-width="20"/></g></svg>