<svg width="30.000000000000004" height="30.000000000000004" xmlns="http://www.w3.org/2000/svg">
 <g>
  <title>background</title>
  <rect fill="none" id="canvas_background" height="3.12837" width="3.12837" y="-1" x="-1"/>
 </g>

 <g>
  <title>Layer 1</title>
  <polyline stroke-linecap="round" id="svg_4" points="2.1421900228804986,7.797153616878 2.1421900228804986,7.797153616878 " stroke-opacity="null" stroke-width="null" stroke="null" fill="none"/>
  <polyline stroke-linecap="round" id="svg_5" points="10.35822343826294,16.609855592250824 10.35822343826294,16.609855592250824 10.395836353302002,16.609855592250824 " stroke-opacity="null" stroke-width="null" stroke="null" fill="none"/>
  <polyline stroke-linecap="round" id="svg_6" points="1.8036750357746882,14.078487266508011 1.8036750357746882,14.078487266508011 " stroke-opacity="null" stroke-width="null" stroke="null" fill="none"/>
  <polyline stroke-linecap="round" id="svg_7" points="4.624633261656431,12.122622896563337 4.624633261656431,12.122622896563337 " stroke-opacity="null" stroke-width="null" stroke="null" fill="none"/>
  <polyline stroke-linecap="round" id="svg_8" points="4.2861182745506206,13.852810608437471 4.2861182745506206,13.852810608437471 4.2861182745506206,13.852810608437471 " stroke-opacity="null" stroke-width="null" stroke="null" fill="none"/>
  <ellipse ry="0.097163" rx="1.185387" id="svg_11" cy="16.165954" cx="19.666927" stroke-opacity="null" stroke-width="null" stroke="null" fill="#6b6b6b"/>
  <ellipse ry="0.097163" rx="1.185387" id="svg_12" cy="9.228526" cx="10.047805" stroke-opacity="null" stroke-width="null" stroke="null" fill="#6b6b6b"/>
  <ellipse ry="0.019433" rx="0.019433" id="svg_13" cy="22.967353" cx="14.692189" stroke-opacity="null" stroke-width="null" stroke="null" fill="#6b6b6b"/>
  <ellipse ry="14.282938" rx="14.282938" id="svg_10" cy="15" cx="15.075223" stroke-opacity="null" stroke-width="null" stroke="null" fill="#d8d8d8"/>
  <g transform="rotate(180 15.158792495727537,15.000000000000002) " id="svg_1">
   <polygon transform="rotate(180 20.796730041503906,15.000000000000002) " id="svg_3" points="22.09191182255745,5.512393951416016 22.09191182255745,14.787344932556152 22.09191182255745,15.44166374206543 22.09191182255745,24.487606048583984 19.501549273729324,24.487606048583984 19.501549273729324,5.512393951416016 " fill="#6b6b6b" stroke="null" stroke-width="0"/>
   <polygon transform="rotate(180 13.877850532531737,15.000000953674316) " id="svg_2" points="19.530027896165848,24.435522079467773 8.225672274827957,15.000328063964844 19.530027896165848,5.564480781555176 " fill="#6b6b6b" stroke="null" stroke-width="0"/>
  </g>
 </g>
</svg>