<svg width="500" height="500" xmlns="http://www.w3.org/2000/svg">
 <!-- Created with Method Draw - http://github.com/duopixel/Method-Draw/ -->

 <g>
  <title>background</title>
  <rect x="-1" y="-1" width="567.100475" height="567.100475" id="canvas_background" fill="none"/>
  <g id="canvasGrid" display="none">
   <rect id="svg_1" width="100%" height="100%" x="0" y="0" stroke-width="0" fill="url(#gridpattern)"/>
  </g>
 </g>
 <g>
  <title>Layer 1</title>
  <rect transform="rotate(180 240.55558776855466,258.314208984375) " fill="#ffffff" stroke="#42dca3" stroke-width="1.5" x="86.111145" y="117.758647" width="308.888889" height="281.111111" id="svg_10"/>
  <path transform="rotate(540 250.00001525878906,249.99998474121094) " d="m250.000023,13.112095c-130.821341,0 -236.887897,106.066556 -236.887897,236.887897s106.066556,236.887897 236.887897,236.887897s236.887897,-106.066556 236.887897,-236.887897s-106.066556,-236.887897 -236.887897,-236.887897zm0.45897,355.331846l0,-88.832961l-118.902919,0l0,-59.221974l118.902919,0l0,-88.373991l117.984978,117.984978l-117.984978,118.443949z" fill="#42dca3" id="svg_8" stroke="#dfdfdf"/>
  <rect transform="rotate(180 148.90802001953122,249.99996948242188) " fill="#ffffff" stroke="#ffffff" stroke-width="1.5" x="129.463576" y="149.999962" width="38.888889" height="200" id="svg_11"/>
 </g>
</svg>